inDegrees=no
num_controls=7
num_derivatives=13
num_iterations=104
num_multipliers=7
num_parameters=0
num_slacks=7
num_states=26
objective=0.445693
objective_accelerations=0.057309
objective_balance=0.003480
objective_effort=0.022810
objective_height=0.356552
objective_ligament=0.005541
solver_duration=1430.631205
status=Solve_Succeeded
success=true
DataType=double
version=3
OpenSimVersion=4.5
endheader
time	/jointset/ground_pelvis/pelvis_tilt/value	/jointset/ground_pelvis/pelvis_tx/value	/jointset/ground_pelvis/pelvis_ty/value	/jointset/hip_l/hip_flexion_l/value	/jointset/hip_l/hip_adduction_l/value	/jointset/hip_l/hip_rotation_l/value	/jointset/back/lumbar_extension/value	/jointset/patellofemoral_l/patellar_flexion_l/value	/jointset/knee_l/knee_flexion_l/value	/jointset/knee_l/knee_adduction_l/value	/jointset/knee_l/knee_rotation_l/value	/jointset/ankle_l/ankle_angle_l/value	/jointset/subtalar_l/subtalar_angle_l/value	/jointset/ground_pelvis/pelvis_tilt/speed	/jointset/ground_pelvis/pelvis_tx/speed	/jointset/ground_pelvis/pelvis_ty/speed	/jointset/hip_l/hip_flexion_l/speed	/jointset/hip_l/hip_adduction_l/speed	/jointset/hip_l/hip_rotation_l/speed	/jointset/back/lumbar_extension/speed	/jointset/patellofemoral_l/patellar_flexion_l/speed	/jointset/knee_l/knee_flexion_l/speed	/jointset/knee_l/knee_adduction_l/speed	/jointset/knee_l/knee_rotation_l/speed	/jointset/ankle_l/ankle_angle_l/speed	/jointset/subtalar_l/subtalar_angle_l/speed	/forceset/tau_hip_flexion_l	/forceset/tau_hip_adduction_l	/forceset/tau_hip_rotation_l	/forceset/tau_knee_flexion_l	/forceset/tau_ankle_angle_l	/forceset/tau_subtalar_angle_l	/forceset/tau_lumbar_extension	lambda_cid13_p0	lambda_cid13_p1	lambda_cid13_p2	lambda_cid13_p3	lambda_cid13_p4	lambda_cid13_p5	lambda_cid14_p0	/jointset/ground_pelvis/pelvis_tilt/accel	/jointset/ground_pelvis/pelvis_tx/accel	/jointset/ground_pelvis/pelvis_ty/accel	/jointset/hip_l/hip_flexion_l/accel	/jointset/hip_l/hip_adduction_l/accel	/jointset/hip_l/hip_rotation_l/accel	/jointset/back/lumbar_extension/accel	/jointset/patellofemoral_l/patellar_flexion_l/accel	/jointset/knee_l/knee_flexion_l/accel	/jointset/knee_l/knee_adduction_l/accel	/jointset/knee_l/knee_rotation_l/accel	/jointset/ankle_l/ankle_angle_l/accel	/jointset/subtalar_l/subtalar_angle_l/accel	gamma_cid13_p0	gamma_cid13_p1	gamma_cid13_p2	gamma_cid13_p3	gamma_cid13_p4	gamma_cid13_p5	gamma_cid14_p0
0	-0.03966079501231287	0.06897367026273724	0.8959563024584511	0.1955287580552426	-0.3219498903330052	-0.484531667815181	-0.1379045077516729	0.07015288079084982	0.07015288079084844	-0.1745328116856369	-0.1189409361054537	-0.06701059314715049	0.003893597211766789	0	0	0	0	0	0	0	0	0	0	0	0	0	0.1077205502597463	-0.1004272641041606	-0.03098748360084418	-0.2384882207461608	0.2002568506721522	-0.01669815119929744	-0.05206106794012384	28.58841199700799	-0.8186391491988877	3.295588964682018	-2.982622865733167	-515.4069678571775	-79.82907238680907	-39.94422849685209	-4.395682370768133	-1.780048218579729	-0.9669362832862293	12.41915836582319	-2.125006608664073	3.319689311841452	-2.833957687034578	10.26250180250069	10.26250180250853	0.6933336274088865	-0.8649544530568961	2.432932393676055	-1.007280169485557	-2.636013511652183e-08	7.598251646583897e-08	1.066661703979699e-07	9.254656262471177e-09	-3.119441140165161e-08	-4.660282717007465e-08	-7.895627273762652e-09
0.01	-0.03987055024765201	0.06888570628518147	0.8959093310119619	0.1961297109170182	-0.3220545588682117	-0.4843642991655554	-0.1380520059802189	0.07065145725027669	0.07065145725027867	-0.1745017039484974	-0.1189774079722156	-0.06689396795115883	0.003842185132172321	-0.04176328861422481	-0.01753045608368051	-0.009367192605825339	0.119687365884362	-0.02083684893121895	0.03339866663555252	-0.02923985230654717	0.09927178712377467	0.09927178712381103	0.006192782645193071	-0.007193396661430199	0.02320253453004753	-0.01024469597556117	0.1028196722785602	-0.1014960209337945	-0.02994310405130218	-0.2317718293394357	0.1894625322989958	-0.01112826830044727	-0.04799799659344462	25.30254045881072	-2.636910963864474	3.556462261866826	-1.603880529660088	-516.190780500331	-83.74960811168324	-39.95435530995928	-4.038496776767554	-1.730191538362514	-0.9175524843073691	11.66803573904657	-2.048518742792553	3.338682704877335	-2.930029991945014	9.692993032211575	9.692993032211662	0.5779615425215612	-0.6313736989219615	2.245538908277313	-1.027430546123633	-6.952336587671631e-08	1.352414485983282e-07	2.006459725512892e-07	4.809303487454142e-08	-2.463457461984794e-07	-9.67581202278012e-08	-1.364355602423514e-08
0.02	-0.04049230730314033	0.06862430829976869	0.895769499292399	0.1979124394454985	-0.3223646948342175	-0.4838651983764793	-0.1384841089297262	0.07212944675392081	0.07212944675392158	-0.1744095261930071	-0.1190827820908363	-0.06654899242474493	0.00368945284591578	-0.082400364029145	-0.03468680157140085	-0.01857205461475371	0.2363551333408836	-0.04109348616010405	0.06634642788971064	-0.05692094419229381	0.1958826088433769	0.1958826088433914	0.01221400366826651	-0.01378045037229676	0.04567006608442174	-0.02026404133241252	0.09791879429738726	-0.1025647777634388	-0.02889872450177656	-0.2250554379327241	0.178668213925827	-0.005558385401614896	-0.0439349252467344	22.08002912600515	-4.467471067270043	3.820660094903235	-0.386180839373517	-516.0486055871571	-87.50602483412587	-39.98411129627475	-4.170439730907138	-1.705226099387747	-0.9344701639068332	11.81523868025514	-2.008964268197298	3.229508235562569	-2.522205602874422	9.730308721666216	9.730308721662402	0.6590213029849695	-0.7436858629441818	2.285931798541329	-0.9622100457436207	-1.126865966369108e-07	1.945003807308174e-07	2.946257747046084e-07	8.693141348661167e-08	-4.614970809953072e-07	-1.469134132855277e-07	-1.939148477470762e-08
0.03	-0.04151527995667936	0.06819359859745602	0.8955381830471411	0.2008473063884247	-0.3228741722676646	-0.4830399149822638	-0.1391847664544493	0.07456087914116381	0.07456087914116788	-0.1742573774551072	-0.1192521314645548	-0.06598229081999304	0.003438393748537251	-0.121991469642719	-0.05135196752550731	-0.02767999074674683	0.3500621361081864	-0.06067399739575242	0.09855025782780248	-0.08296912637590692	0.2899609527621173	0.2899609527621201	0.0182192952748188	-0.02006045074202977	0.0675970272508508	-0.02985018476278866	0.09370379429969401	-0.09903717060607814	-0.02824538737879623	-0.2213799100044002	0.1749723744683597	-0.005512921312738276	-0.04036350625537936	20.9285238099755	-4.358389264550301	3.886416641787648	-0.2519083471477015	-516.0260581434502	-86.62832927001894	-40.0322233067366	-3.82305512856952	-1.631668595509553	-0.8973679530415698	11.06499192630317	-1.913447959242446	3.191783369690511	-2.609909369503307	9.180163752032858	9.18016375203387	0.571882805706625	-0.5657757784248176	2.135092565806496	-0.9422414120243127	-1.397580627131351e-07	2.073791789376588e-07	3.398974095017291e-07	1.142652645673297e-07	-6.295690872358706e-07	-1.787043080466207e-07	-2.248663081508743e-08
0.04	-0.04292808549675593	0.06759933588518466	0.8952161049175237	0.2049025555292851	-0.3235756254950664	-0.4818974006893145	-0.1401386627696903	0.07791980827260597	0.07791980827260792	-0.1740450558578947	-0.1194834045728548	-0.06519851674555441	0.003094388232786991	-0.1603669413357547	-0.06739740356314161	-0.03672443148664307	0.460431572928903	-0.07948864495115433	0.1297926076362136	-0.107568702295453	0.3813819576830527	0.3813819576830773	0.02424857553002326	-0.02616519728924255	0.08908456002179023	-0.03885332500675243	0.08948879430196144	-0.09550956344871014	-0.02759205025585153	-0.2177043820760951	0.1712765350108854	-0.005467457223857114	-0.0367920872640527	19.83504749797435	-4.259367202583018	3.95366270055111	-0.26745917434974	-515.1604791608207	-85.59527952857468	-40.09716932302642	-3.927312946799431	-1.581280116093364	-0.9217710854874546	11.14772549093788	-1.855791532148006	3.037212209626429	-2.232484350060969	9.198840922105234	9.198840922108069	0.6638190327154131	-0.7086350984401467	2.198046119443343	-0.8456094084611723	-1.664977398268034e-07	2.193016857233529e-07	3.841647521884127e-07	1.41361908894824e-07	-7.966703856711503e-07	-2.101165554201543e-07	-2.552708030474368e-08
0.05	-0.04471934150906778	0.06684754725340196	0.894803594508584	0.21004636187773	-0.3244615129103975	-0.4804472812217408	-0.1413305878598109	0.08218047608370749	0.08218047608370645	-0.1737724595886937	-0.1197751868126253	-0.06420202513319423	0.002663146102606301	-0.1976843666692651	-0.08287045954489841	-0.0457868333650011	0.5677928019459978	-0.0975680587934112	0.1601028142205559	-0.130578676364689	0.4702983762141405	0.4702983762144451	0.0302315922358793	-0.03213096741230528	0.1101105473599084	-0.04732347430428817	0.0844789515291422	-0.09173497942069594	-0.02675138771377258	-0.2133433164301652	0.1659994246211464	-0.00495494417103891	-0.03273165923080337	18.24163591068958	-4.283372444032205	4.049343525162797	0.2192964680494864	-514.3316162597092	-84.83981479870369	-40.17706036972826	-3.60398481186985	-1.516810360721581	-0.9000128829585056	10.44976276412778	-1.765960668841431	3.008602867315093	-2.299608030656454	8.670063200154701	8.670063200193697	0.5597608795547482	-0.5314569072906163	2.039388678471468	-0.8370509106984909	-1.849634679621255e-07	2.215895074053958e-07	4.240133292862751e-07	1.582442590096039e-07	-9.009925403377963e-07	-2.362133266645617e-07	-2.907301116489379e-08
0.06	-0.04687777727176662	0.06594372965750059	0.8943001524520712	0.2162476687477501	-0.3255245833358659	-0.4786979240914271	-0.1427454835096849	0.08731671225642781	0.08731671225642462	-0.1734411895744241	-0.120124808541237	-0.06299837091995783	0.002149335835390487	-0.2338028914124793	-0.09780319638687324	-0.05491076100134663	0.6719316772443938	-0.1149252469787426	0.1896401401839755	-0.152162814245978	0.5564956300069932	0.5564956300075137	0.03598332454309763	-0.03773309505742027	0.1305170801970417	-0.05536695241377263	0.07946910875631359	-0.08796039539268295	-0.02591072517169952	-0.208982250784249	0.1607223142314003	-0.004442431118225768	-0.02867123119755277	16.70033690152627	-4.315249864594403	4.14484945227737	0.5704738159560364	-512.7455588498881	-83.94183497544759	-40.26976553666928	-3.687532828740157	-1.473216288137019	-0.9340762370849525	10.5032547471981	-1.711346400762899	2.882636085441925	-1.947317112471537	8.655007974458215	8.655007974448234	0.6175621529878781	-0.6359066028506113	2.074155219246312	-0.7602751708509408	-2.030808192983595e-07	2.234716581357059e-07	4.63675853096187e-07	1.746965335785854e-07	-1.002671362635237e-06	-2.620862883877428e-07	-3.264022545116996e-08
0.07000000000000001	-0.04939217726984493	0.06489330464453585	0.8937049293649078	0.223475744828454	-0.3267575868844457	-0.4766574287646561	-0.1443684133166694	0.09330239580633673	0.09330239580634633	-0.1730532232464305	-0.1205293735804518	-0.06159330210568838	0.001557490659019686	-0.2688718667534078	-0.1121858499731168	-0.0641554404376659	0.7731430560574859	-0.1315437010779887	0.2183223140894485	-0.1722020934596945	0.6401877743879076	0.6401877743878919	0.04157637848616282	-0.04312598269943813	0.1503980810994016	-0.06291703549756139	0.07434409694872246	-0.08475458101461206	-0.02510199078598346	-0.2054181376519485	0.156019788453887	-0.003492620250045262	-0.02456600018393196	15.34436910061206	-4.54426316750245	4.242961947859597	0.8044929174241015	-511.3724297247485	-83.44500237866562	-40.3728662125909	-3.385804486989682	-1.406361320316208	-0.9231031645939874	9.848979913681148	-1.617397980235597	2.840452688076585	-1.999075272039097	8.158328403150472	8.158328403076199	0.525232808095967	-0.4828285380708409	1.930276636326475	-0.7397044062777351	-2.109699036527198e-07	2.038527270109317e-07	4.827217155888426e-07	1.810603365072165e-07	-1.051806162701436e-06	-2.774783394573004e-07	-3.56695569822876e-08
0.08	-0.05225111194137911	0.06370193881041887	0.8930165716098432	0.2316997147903496	-0.3281528355871639	-0.4743342227698351	-0.1461851043050357	0.100111402946705	0.1001114029467223	-0.1726103152203815	-0.1209862372347223	-0.05999238246027627	0.0008926787459840015	-0.3027098261031472	-0.1259913606173241	-0.07353769458155562	0.8711104534832299	-0.1473742778064405	0.2461822737939851	-0.1909150505220987	0.7211603480985184	0.7211603480980141	0.04697166415443463	-0.04819281806919611	0.1696872464255869	-0.06996029974674547	0.06921908514112671	-0.08154876663653568	-0.02429325640028808	-0.201854024519641	0.1513172626763787	-0.002542809381855932	-0.02046076917032174	14.03409764882089	-4.779831176326263	4.340467678179256	0.9192411130229761	-509.3321046219246	-82.82199533634682	-40.48379575211605	-3.441329630502295	-1.357787699729798	-0.9615911785990419	9.854458469728474	-1.553770926604005	2.718193245254628	-1.682052682209033	8.111093840397446	8.111093840397043	0.5780084980292077	-0.5706961483986486	1.955788104011364	-0.6589114039300288	-2.181990998147011e-07	1.828466293148617e-07	5.004374708997398e-07	1.867732702977606e-07	-1.09755102584949e-06	-2.921942027427532e-07	-3.866418640016918e-08
